<mxfile host="app.diagrams.net" agent="Mozilla/5.0 (Windows NT 10.0; Win64; x64) AppleWebKit/537.36 (KHTML, like Gecko) Chrome/129.0.0.0 Safari/537.36" version="24.7.7">
  <diagram name="Страница — 1" id="NCDsGdTBt5C50hf7sP8n">
    <mxGraphModel dx="564" dy="522" grid="1" gridSize="10" guides="1" tooltips="1" connect="1" arrows="1" fold="1" page="1" pageScale="1" pageWidth="827" pageHeight="1169" math="0" shadow="0">
      <root>
        <mxCell id="0" />
        <mxCell id="1" parent="0" />
        <mxCell id="f5bui7D4jws4NQQmVg2a-21" style="edgeStyle=orthogonalEdgeStyle;rounded=0;orthogonalLoop=1;jettySize=auto;html=1;" edge="1" parent="1" source="f5bui7D4jws4NQQmVg2a-10" target="f5bui7D4jws4NQQmVg2a-12">
          <mxGeometry relative="1" as="geometry" />
        </mxCell>
        <mxCell id="f5bui7D4jws4NQQmVg2a-10" value="&lt;font style=&quot;font-size: 24px;&quot;&gt;X&lt;/font&gt;" style="ellipse;whiteSpace=wrap;html=1;aspect=fixed;" vertex="1" parent="1">
          <mxGeometry x="120" y="110" width="50" height="50" as="geometry" />
        </mxCell>
        <mxCell id="f5bui7D4jws4NQQmVg2a-12" value="&lt;font style=&quot;font-size: 24px;&quot;&gt;Y&lt;/font&gt;" style="ellipse;whiteSpace=wrap;html=1;aspect=fixed;" vertex="1" parent="1">
          <mxGeometry x="120" y="280" width="50" height="50" as="geometry" />
        </mxCell>
        <mxCell id="f5bui7D4jws4NQQmVg2a-29" style="edgeStyle=orthogonalEdgeStyle;rounded=0;orthogonalLoop=1;jettySize=auto;html=1;" edge="1" parent="1" source="f5bui7D4jws4NQQmVg2a-13" target="f5bui7D4jws4NQQmVg2a-14">
          <mxGeometry relative="1" as="geometry" />
        </mxCell>
        <mxCell id="f5bui7D4jws4NQQmVg2a-36" style="edgeStyle=orthogonalEdgeStyle;rounded=0;orthogonalLoop=1;jettySize=auto;html=1;exitX=0;exitY=0.5;exitDx=0;exitDy=0;" edge="1" parent="1" source="f5bui7D4jws4NQQmVg2a-13" target="f5bui7D4jws4NQQmVg2a-13">
          <mxGeometry relative="1" as="geometry">
            <mxPoint x="360" y="100" as="targetPoint" />
            <Array as="points">
              <mxPoint x="320" y="135" />
              <mxPoint x="320" y="60" />
              <mxPoint x="365" y="60" />
            </Array>
          </mxGeometry>
        </mxCell>
        <mxCell id="f5bui7D4jws4NQQmVg2a-13" value="&lt;font style=&quot;font-size: 24px;&quot;&gt;Z&lt;/font&gt;" style="ellipse;whiteSpace=wrap;html=1;aspect=fixed;" vertex="1" parent="1">
          <mxGeometry x="340" y="110" width="50" height="50" as="geometry" />
        </mxCell>
        <mxCell id="f5bui7D4jws4NQQmVg2a-32" style="edgeStyle=orthogonalEdgeStyle;rounded=0;orthogonalLoop=1;jettySize=auto;html=1;entryX=0.5;entryY=0;entryDx=0;entryDy=0;" edge="1" parent="1" source="f5bui7D4jws4NQQmVg2a-14" target="f5bui7D4jws4NQQmVg2a-33">
          <mxGeometry relative="1" as="geometry">
            <mxPoint x="365" y="410" as="targetPoint" />
          </mxGeometry>
        </mxCell>
        <mxCell id="f5bui7D4jws4NQQmVg2a-14" value="&lt;font style=&quot;font-size: 24px;&quot;&gt;V&lt;/font&gt;" style="ellipse;whiteSpace=wrap;html=1;aspect=fixed;" vertex="1" parent="1">
          <mxGeometry x="340" y="280" width="50" height="50" as="geometry" />
        </mxCell>
        <mxCell id="f5bui7D4jws4NQQmVg2a-22" value="&lt;font style=&quot;font-size: 24px;&quot;&gt;(&lt;/font&gt;" style="text;html=1;align=center;verticalAlign=middle;resizable=0;points=[];autosize=1;strokeColor=none;fillColor=none;" vertex="1" parent="1">
          <mxGeometry x="120" y="193" width="30" height="40" as="geometry" />
        </mxCell>
        <mxCell id="f5bui7D4jws4NQQmVg2a-23" style="edgeStyle=orthogonalEdgeStyle;rounded=0;orthogonalLoop=1;jettySize=auto;html=1;entryX=0.5;entryY=1;entryDx=0;entryDy=0;exitX=0;exitY=0.5;exitDx=0;exitDy=0;" edge="1" parent="1" source="f5bui7D4jws4NQQmVg2a-12" target="f5bui7D4jws4NQQmVg2a-12">
          <mxGeometry relative="1" as="geometry">
            <Array as="points">
              <mxPoint x="60" y="305" />
              <mxPoint x="60" y="350" />
              <mxPoint x="145" y="350" />
            </Array>
          </mxGeometry>
        </mxCell>
        <mxCell id="f5bui7D4jws4NQQmVg2a-25" value="&lt;font style=&quot;font-size: 24px;&quot;&gt;y&lt;/font&gt;" style="text;html=1;align=center;verticalAlign=middle;resizable=0;points=[];autosize=1;strokeColor=none;fillColor=none;" vertex="1" parent="1">
          <mxGeometry x="30" y="313" width="40" height="40" as="geometry" />
        </mxCell>
        <mxCell id="f5bui7D4jws4NQQmVg2a-27" value="" style="endArrow=classic;html=1;rounded=0;exitX=1;exitY=0.5;exitDx=0;exitDy=0;entryX=0;entryY=1;entryDx=0;entryDy=0;" edge="1" parent="1" source="f5bui7D4jws4NQQmVg2a-12" target="f5bui7D4jws4NQQmVg2a-13">
          <mxGeometry width="50" height="50" relative="1" as="geometry">
            <mxPoint x="300" y="230" as="sourcePoint" />
            <mxPoint x="350" y="180" as="targetPoint" />
          </mxGeometry>
        </mxCell>
        <mxCell id="f5bui7D4jws4NQQmVg2a-28" value="&lt;span style=&quot;font-size: 24px;&quot;&gt;z&lt;/span&gt;" style="text;html=1;align=center;verticalAlign=middle;resizable=0;points=[];autosize=1;strokeColor=none;fillColor=none;" vertex="1" parent="1">
          <mxGeometry x="230" y="193" width="40" height="40" as="geometry" />
        </mxCell>
        <mxCell id="f5bui7D4jws4NQQmVg2a-30" value="&lt;span style=&quot;font-size: 24px;&quot;&gt;v&lt;/span&gt;" style="text;html=1;align=center;verticalAlign=middle;resizable=0;points=[];autosize=1;strokeColor=none;fillColor=none;" vertex="1" parent="1">
          <mxGeometry x="330" y="203" width="40" height="40" as="geometry" />
        </mxCell>
        <mxCell id="f5bui7D4jws4NQQmVg2a-31" value="" style="endArrow=classic;html=1;rounded=0;entryX=0;entryY=0;entryDx=0;entryDy=0;" edge="1" parent="1" target="f5bui7D4jws4NQQmVg2a-10">
          <mxGeometry width="50" height="50" relative="1" as="geometry">
            <mxPoint x="30" y="50" as="sourcePoint" />
            <mxPoint x="357" y="163" as="targetPoint" />
          </mxGeometry>
        </mxCell>
        <mxCell id="f5bui7D4jws4NQQmVg2a-33" value="&lt;span style=&quot;font-size: 24px;&quot;&gt;N&lt;/span&gt;" style="ellipse;whiteSpace=wrap;html=1;aspect=fixed;" vertex="1" parent="1">
          <mxGeometry x="340" y="430" width="50" height="50" as="geometry" />
        </mxCell>
        <mxCell id="f5bui7D4jws4NQQmVg2a-34" value="&lt;span style=&quot;font-size: 24px;&quot;&gt;)&lt;/span&gt;" style="text;html=1;align=center;verticalAlign=middle;resizable=0;points=[];autosize=1;strokeColor=none;fillColor=none;" vertex="1" parent="1">
          <mxGeometry x="335" y="360" width="30" height="40" as="geometry" />
        </mxCell>
        <mxCell id="f5bui7D4jws4NQQmVg2a-37" value="&lt;span style=&quot;font-size: 24px;&quot;&gt;v&lt;/span&gt;" style="text;html=1;align=center;verticalAlign=middle;resizable=0;points=[];autosize=1;strokeColor=none;fillColor=none;" vertex="1" parent="1">
          <mxGeometry x="280" y="70" width="40" height="40" as="geometry" />
        </mxCell>
      </root>
    </mxGraphModel>
  </diagram>
</mxfile>
